<?xml version="1.0" encoding="UTF-8"?>
<svg width="752pt" height="752pt" version="1.1" viewBox="0 0 752 752" xmlns="http://www.w3.org/2000/svg">
 <g>
  <path d="m752 376c0 134.33-71.664 258.46-188 325.62-116.34 67.168-259.66 67.168-376 0-116.34-67.164-188-191.29-188-325.62s71.664-258.46 188-325.62c116.34-67.168 259.66-67.168 376 0 116.34 67.164 188 191.29 188 325.62" fill="#a8aaad"/>
  <path d="m567.57 378.51c6.2969-7.5312 12.645-16.34 15.012-26.047 2.1797-8.9492-0.66406-18.613-6.8672-25.383-2.5117-2.6992-5.4453-4.5938-8.6211-6.0625 10.703-6.9141 18.754-16.48 18.516-31.02-0.14062-8.9023-3.6484-18.895-11.555-23.773-2.8398-1.7539-5.9688-2.6055-9.1406-2.9375 2.8398-7.4336 2.8398-15.77-0.75781-23.441-6.0156-12.785-20.031-18.516-33.578-16.621-19.891 2.793-26.898 19.039-29.41 36.18-3.3633-1.8008-7.0547-2.9375-11.082-2.8906-7.7188 0.09375-15.344 4.4531-19.844 10.656-7.5312 10.324-4.5 23.207 0.33203 34.902-6.7266-0.89844-13.496-0.14062-19.984 3.457-0.37891 0.23828-0.71094 0.47266-1.0898 0.71094-9.1406-5.7773-19.844-8.1445-30.5-7.6719-3.0312-17.191-13.828-34.051-29.742-41.77-16.906-8.2422-37.934-9.1875-54.32 0.37891-2.7461-8.8555-7.7188-16.434-16.906-20.363 2.5117-3.7422 4.6875-7.7656 6.4883-11.746 3.2695-7.3867 5.2578-15.156 1.5625-22.828-3.7422-7.8125-13.781-11.648-21.691-8.0508-2.1328 0.99609-3.8828 2.4141-5.3984 4.0742-0.61719-1.1367-1.2773-2.3203-1.9883-3.4102-2.8398-4.5-6.7266-9.8984-12.598-9.8984-6.2969-0.046875-9.2344 6.4883-11.035 11.461-0.66406 1.7539-1.1836 3.5977-1.7031 5.3984-4.5-2.6992-9.5195-4.168-14.871-2.5586-7.1523 2.1328-13.402 9.375-12.883 17.051 0.51953 7.7656 6.1562 14.398 11.699 19.371 1.2773 1.1836 2.6523 2.2734 4.0273 3.4102-1.375 0.56641-2.6992 1.2305-3.9766 1.9414-13.117 7.6719-10.039 28.227-8.5234 40.871 0.85156 7.293 1.8945 14.777 3.3633 22.164-1.043-0.71094-2.082-1.4688-3.1719-2.2266-10.562-7.1055-19.133-14.777-25.953-25.668-6.25-9.9453-15.391-22.023-27.371-25.336-9.8047-2.6992-18.516 4.2617-22.449 12.785-9.6133 20.934-3.9766 47.973 4.2617 68.195 7.8125 19.133 18.043 42.48 34.098 57.777-1.7539 0.046875-7.8125 0.14062-8.3359 0.28516-15.676 1.8477-22.875 17.098-17.098 31.258 4.0742 9.9922 54.508 133.46 57.539 140.84 1.1836 2.9375 3.457 5.2109 6.8672 5.2109h267.38c3.457 0 5.6367-2.2734 6.8672-5.2109 14.633-35.852 58.203-141.55 59.293-145.34 3.9766-13.969-7.1992-26.473-20.934-26.898-1.5625-0.046875-3.0781-0.046875-4.6406-0.046875 3.7461-3.5547 7.3945-7.2031 10.711-11.18zm-85.957-58.582c6.3477 2.6055 10.371-5.5391 8.0039-10.418-4.0273-8.3828-12.406-21.832-9.1875-31.586 1.2305-3.6953 5.2109-6.8203 9.0938-7.1523 5.2578-0.47266 9.375 4.2148 12.457 7.8125 4.2148 4.9727 11.934 0.66406 12.125-5.0195 0.42578-11.887 0.47266-29.977 13.688-35.188 7.8633-3.125 17.809-1.375 22.543 5.9688 5.1133 7.8125 1.6562 16.574-4.9258 22.117-6.0156 5.0664 0.71094 12.883 6.9141 11.887 4.0742-0.66406 10.039-2.2734 13.875-0.1875 4.8789 2.6523 5.5898 10.703 4.9258 15.484-1.6562 12.266-14.586 18.09-24.863 22.352-6.0625 2.5117-7.3867 11.699 0 13.688 5.918 1.6094 13.828 2.1797 18.469 6.582 4.7344 4.5 5.2578 10.086 3.0781 15.816-5.9688 15.629-20.602 28.938-34.523 37.602h-28.559c0.23828-0.66406 1.9883-17.051 3.5508-24.438 8.5234-1.4688 20.695-8.5703 24.816-11.082 3.1719-1.9414 4.6406-6.4414 2.5586-9.707-2.0352-3.1719-6.3477-4.6406-9.707-2.5586-3.8828 2.3672-13.117 6.8672-13.59 7.1055 2.793-9.9922 6.1562-19.938 11.461-28.887 4.6875-7.8633-7.5781-15.012-12.266-7.1523-6.3477 10.703-10.371 22.875-13.641 34.855-0.89844-0.94531-5.9688-9.6133-8.1914-12.645-2.2734-3.1719-5.8711-4.7344-9.3281-3.1719-4.3555 1.9883-4.5469 5.3516-3.7891 8.3359 1.1836 4.5469 3.9297 8.4297 6.7734 12.219 2.8398 3.7422 10.418 10.656 10.797 10.891-1.6094 7.957-3.1719 25.574-2.9844 26.238h-13.875c-11.699-13.641-24.012-30.641-27.371-48.449-1.6094-8.4297-1.8945-17.191 5.918-22.305 8.4688-5.543 17.09-2.6055 25.754 0.99219zm30.785 29.031c0.42578-0.19141 0.80469-0.33203 0 0zm-158.32 19.18c-3.8359 0.1875-7.1055 3.125-7.1055 7.1055v14.398h-30.879c1.4688-17.238 13.688-33.387 32.109-36.086 15.961-2.3203 26.852 5.0664 32.156 10.086 7.1523 6.7734 10.891 16.293 11.699 26h-30.879v-14.398c0.003907-3.7422-3.2656-7.2969-7.1016-7.1055zm52.238 21.5c-0.61719-9.0469-2.5117-16.434-7.0078-24.012 0-7.1055 4.0273-17.332 12.785-21.738 6.0625-3.0312 15.391-3.7422 24.578 2.2266 3.5977 15.77 12.457 30.5 22.449 43.523h-52.805zm32.582-72.93c-2.1797 3.7422-3.4102 8.0039-3.7891 12.691-9.7539-3.3164-20.98-2.082-30.262 2.4609-7.957 3.9297-13.875 11.223-17.191 19.465-2.7461-2.4141-5.8242-4.5-9.0938-6.25 2.9844-11.27 11.648-22.684 22.305-27.801 12.078-5.8711 26.238-6.2969 38.031-0.56641zm-100.92-44.66c12.836-9.4258 29.883-9.8516 44.137-3.0312 11.84 5.6836 21.266 19.227 23.062 31.684-3.9297 1.0898-7.8125 2.5117-11.461 4.3086-13.828 6.8203-23.82 20.457-28.18 35.281-10.086-2.1797-20.41-1.4219-29.742 2.0352 3.0312-18.328 4.2148-36.938 3.125-55.504-0.28516-4.5938-0.51953-9.6133-1.043-14.68 0.007812-0.09375 0.054687-0.09375 0.10156-0.09375zm-13.828 6.3945c-7.1992-0.28516-14.348-0.75781-21.547-0.75781-3.6953 0-7.293 3.2695-7.1055 7.1055 0.1875 3.8359 3.125 7.1055 7.1055 7.1055 7.4336 0 14.871 0.47266 22.258 0.75781 0.28516 8.9961 0.1875 17.996-0.51953 26.945-7.1992-0.51953-15.012-0.09375-21.691-0.046874-5.5391 0.046874-7.0078 3.457-7.1055 7.1055-0.09375 3.5977 3.125 7.3867 7.1055 7.1055 6.6758-0.47266 13.402-0.42578 20.129 0-0.80469 5.8242-3.0781 17.949-3.125 18.184-3.6484 3.2188-6.8672 6.9609-9.5195 11.27-4.832 7.9102-7.5781 17.098-8.1445 26.379-3.0312 0-20.363-0.046875-26.047-0.09375 7.0078-20.98 7.5312-47.215-4.6406-65.828 0 0-7.1992-17.051-8.8555-33.531-0.94531-9.707-3.3633-22.07-2.1328-30.832 0.61719-4.3555 1.9414-6.0625 6.0156-7.5312 9.2344-3.2188 31.824-4.9258 40.445-3.6484 8.5234 1.3242 12.93 6.1094 15.012 14.254 1.3203 5.2578 1.9375 10.656 2.3633 16.059zm-64.504-64.977c3.6953-4.0742 8.9023 3.6953 10.988 6.0156 3.6484 4.0273 10.512 1.8477 11.887-3.125 1.043-3.8828 3.2695-12.219 3.3164-12.504v0.046875c1.9883 3.5039 3.6484 7.0078 4.7812 10.844 1.8008 6.1562 9.6133 6.6758 12.977 1.7031 1.2773-1.8477 3.6953-10.891 8.5703-9.1406 4.9727 1.8008-0.71094 12.266-2.0352 14.777-2.082 4.0273-4.5469 7.957-7.5312 11.414-5.4922-0.33203-21.266 0.85156-23.82 1.1367-9.4219-3.2188-24.387-15.391-19.133-21.168zm-64.168 127.82c-9.1875-19.133-16.766-39.641-13.969-61.234 0.51953-4.0273 2.3203-15.914 8.2891-15.723 3.1719 0.09375 7.1523 4.3086 9.2344 6.2969 4.5 4.3555 7.7656 9.2812 11.129 14.492 5.918 9.2812 13.309 16.953 22.164 23.488 7.0078 5.1602 14.777 9.375 21.027 15.484 16.434 16.102 16.242 45.18 7.6719 65.258-1.7539 0-3.5039-0.046874-5.2578-0.046874-3.8359-25.668-18.801-48.922-31.824-70.848-4.6406-7.8633-16.953-0.71094-12.266 7.1523 6.3477 10.703 12.738 21.406 18.328 32.535 4.832 9.6602 9.7539 20.41 11.508 31.02-2.2734 0-7.2461-0.28516-7.5312-0.37891-19.133-8.4258-29.836-29.5-38.504-47.496zm366.32 62.559c8.7148 0.75781 7.2461 8.2891 4.9727 13.828-2.6523 6.5352-34.809 85.148-51.762 126.68-2.1328 5.1602-7.1523 8.5234-12.738 8.5234h-239.49c-5.5898 0-10.609-3.3633-12.738-8.5703-16.195-39.641-32.395-79.23-48.59-118.87-2.4141-5.9688-10.988-20.98 1.7539-21.645 23.723 0.046875 351.91-0.51953 358.59 0.046875z"/>
 </g>
</svg>
